<svg xmlns="http://www.w3.org/2000/svg" viewBox="0 0 64 64" fill="none" stroke="currentColor" stroke-width="1.7" stroke-linecap="round" stroke-linejoin="round">
  <!-- folded map: three panels with up/down accordion folds -->
  <path d="M10 18l11-3 11 3 11-3 11 3-1 28-11 3-11-3-11 3-10-3 1-28z"/>
  <!-- fold creases -->
  <path d="M21 15l-1 31M32 18l-1 31M43 15l-1 31"/>
  <!-- dotted route -->
  <path d="M16 39c4-1 5-7 9-7s5 5 9 4 4-9 9-9" stroke-dasharray="0.2 4"/>
  <!-- location pin -->
  <path d="M43 24c0-1.6-1.3-3-3-3s-3 1.4-3 3c0 2 3 5 3 5s3-3 3-5z"/>
  <!-- little compass star -->
  <path d="M18 24l1.5 3 3 1.5-3 1.5-1.5 3-1.5-3-3-1.5 3-1.5 1.5-3z"/>
</svg>
