<svg xmlns="http://www.w3.org/2000/svg" viewBox="0 0 64 64" fill="none" stroke="currentColor" stroke-width="1.7" stroke-linecap="round" stroke-linejoin="round">
  <!-- torn strip, slightly skewed -->
  <path d="M8 26l3-1.5 2.5 1.4 2.8-1.3 2.6 1.4 2.8-1.4 2.7 1.4 2.8-1.4 2.7 1.5 2.8-1.5 2.7 1.5 2.8-1.4 2.7 1.4 2.8-1.4 2.7 1.4 2.9-1.3 2.9 1.3
           -1.3 11.6-3-1.2-2.7 1.4-2.8-1.3-2.7 1.3-2.8-1.3-2.7 1.3-2.8-1.4-2.7 1.4-2.8-1.4-2.7 1.4-2.8-1.4-2.7 1.4-2.8-1.3-2.9 1.3-2.7-1.4z"/>
  <!-- diagonal pattern lines -->
  <path d="M15 27l-4 9M23 26l-4.5 10M31 27l-4.5 10M39 26l-4.5 10M47 27l-4.5 10"/>
</svg>
